<svg width="399" height="192" viewBox="0 0 399 192" fill="none" xmlns="http://www.w3.org/2000/svg">
<path d="M46.3518 39.3H44.6118L36.7518 59.01L28.9518 39.3H27.0918V60H28.2318V48.33C28.2318 45.72 28.2318 42.81 28.1718 40.29C29.1018 42.78 30.2718 45.75 31.2918 48.3L36.0018 60H37.4418L42.1518 48.33C43.2018 45.75 44.3418 42.78 45.2718 40.26C45.2118 42.78 45.2418 45.72 45.2418 48.33V60H46.3518V39.3ZM63.2575 51.66C63.2575 47.55 61.0675 43.77 56.5975 43.77C52.5775 43.77 49.4275 47.04 49.4275 52.05C49.4275 57.6 52.5475 60.42 56.3275 60.42C59.3875 60.42 62.1475 58.65 63.0175 55.08H61.8475C61.0675 58.08 58.7875 59.46 56.3875 59.46C53.6275 59.46 50.8075 57.54 50.6275 52.41H63.2275C63.2575 52.02 63.2575 51.81 63.2575 51.66ZM56.5375 44.73C59.2075 44.73 61.9075 46.53 62.0875 51.42H50.6275C50.8075 46.89 53.7775 44.73 56.5375 44.73ZM86.8471 48.39C86.5171 45.51 84.9271 43.77 82.0771 43.77C80.4871 43.77 79.1371 44.34 78.1171 45.54L77.0671 47.58C76.5271 45.18 74.9971 43.77 72.4471 43.77C70.8571 43.77 69.4771 44.34 68.4571 45.54L67.6771 47.28V44.19H66.5371V60H67.6771V51.24C67.6771 46.65 69.7171 44.73 72.1771 44.73C74.5771 44.73 75.7771 46.32 76.0771 48.78C76.1671 49.59 76.1971 50.31 76.1971 51.51V60H77.3371V51.24C77.3371 46.65 79.3471 44.73 81.8371 44.73C84.2371 44.73 85.4371 46.32 85.7071 48.78C85.7971 49.59 85.8271 50.31 85.8271 51.51V60H86.9671V51C86.9671 49.71 86.9371 49.2 86.8471 48.39ZM98.0158 43.77C96.0058 43.77 94.5358 44.31 93.2458 45.75L92.3158 47.52V37.95H91.1758V60H92.3158V56.76L93.2158 58.62C94.3858 59.88 95.7958 60.42 97.6258 60.42C101.496 60.42 104.946 57.6 104.946 51.93C104.946 47.19 102.276 43.77 98.0158 43.77ZM97.6258 59.46C95.1958 59.46 92.3158 57.93 92.3158 53.04V51.48C92.3158 46.47 94.8958 44.73 97.8958 44.73C101.676 44.73 103.686 48.09 103.686 52.11C103.686 56.55 101.166 59.46 97.6258 59.46ZM120.562 51.66C120.562 47.55 118.372 43.77 113.902 43.77C109.882 43.77 106.732 47.04 106.732 52.05C106.732 57.6 109.852 60.42 113.632 60.42C116.692 60.42 119.452 58.65 120.322 55.08H119.152C118.372 58.08 116.092 59.46 113.692 59.46C110.932 59.46 108.112 57.54 107.932 52.41H120.532C120.562 52.02 120.562 51.81 120.562 51.66ZM113.842 44.73C116.512 44.73 119.212 46.53 119.392 51.42H107.932C108.112 46.89 111.082 44.73 113.842 44.73ZM129.032 43.77C127.742 43.77 126.602 44.4 125.822 45.48L124.982 47.4V44.19H123.842V60H124.982V51.24C124.982 46.44 126.992 44.58 129.842 44.79V43.86C129.602 43.8 129.332 43.77 129.032 43.77ZM136.484 43.77C133.514 43.77 131.444 45.57 131.444 48.12C131.444 50.82 133.634 51.87 136.214 52.5C139.724 53.34 140.954 54.24 140.954 56.25C140.954 58.35 139.034 59.46 136.754 59.46C134.324 59.46 132.374 58.38 131.894 55.32H130.724C131.114 58.92 133.634 60.42 136.664 60.42C139.814 60.42 142.124 58.83 142.124 56.19C142.124 53.52 140.324 52.32 136.694 51.48C134.264 50.91 132.614 50.1 132.614 48.03C132.614 45.96 134.324 44.73 136.424 44.73C138.824 44.73 140.204 45.99 140.804 48.54H141.974C141.554 45.84 139.844 43.77 136.484 43.77ZM159.937 38.88C154.507 38.88 150.457 43.29 150.457 49.71C150.457 56.28 154.177 60.42 159.547 60.42C164.617 60.42 167.227 57.3 167.917 53.46L167.947 53.16H166.807L166.747 53.46C166.057 56.85 163.807 59.43 159.607 59.43C155.257 59.43 151.717 56.1 151.717 49.65C151.717 43.44 155.557 39.87 159.847 39.87C163.777 39.87 166.087 42.3 166.747 45.57L166.807 45.87H167.947L167.917 45.57C167.227 41.79 164.647 38.88 159.937 38.88ZM172.646 37.95H171.506V56.19C171.506 57.24 171.506 57.78 171.536 58.38C171.596 59.76 172.316 60.15 173.306 60.15C173.666 60.15 174.056 60.15 174.416 60.06V59.16C173.126 59.31 172.736 59.07 172.676 58.08C172.646 57.63 172.646 57.06 172.646 56.16V37.95ZM177.937 40.02C177.457 40.02 177.067 40.41 177.067 40.89C177.067 41.37 177.457 41.76 177.937 41.76C178.417 41.76 178.807 41.37 178.807 40.89C178.807 40.41 178.417 40.02 177.937 40.02ZM178.507 60V44.19H177.367V60H178.507ZM195.416 51.66C195.416 47.55 193.226 43.77 188.756 43.77C184.736 43.77 181.586 47.04 181.586 52.05C181.586 57.6 184.706 60.42 188.486 60.42C191.546 60.42 194.306 58.65 195.176 55.08H194.006C193.226 58.08 190.946 59.46 188.546 59.46C185.786 59.46 182.966 57.54 182.786 52.41H195.386C195.416 52.02 195.416 51.81 195.416 51.66ZM188.696 44.73C191.366 44.73 194.066 46.53 194.246 51.42H182.786C182.966 46.89 185.936 44.73 188.696 44.73ZM210.785 48.57C210.485 45.57 208.565 43.77 205.295 43.77C203.435 43.77 201.755 44.43 200.555 45.93L199.835 47.58V44.19H198.695V60H199.835V51.24C199.835 46.71 202.385 44.76 205.175 44.76C208.025 44.76 209.375 46.44 209.645 48.9C209.735 49.71 209.765 50.4 209.765 51.45V60H210.905V51.18C210.905 49.89 210.875 49.38 210.785 48.57ZM216.812 57.54C216.782 57.12 216.782 56.73 216.782 55.95V45.21H219.842V44.31H216.782V40.95H215.642V44.31H213.692V45.21H215.642V55.89C215.642 56.79 215.642 57.33 215.702 57.99C215.822 59.52 216.632 60.21 218.192 60.21C218.762 60.21 219.392 60.18 219.872 60.12V59.22C217.622 59.55 216.932 59.1 216.812 57.54Z" fill="white"/>
<path d="M63.675 64.25H45.675L35.25 104.825L24.825 64.25H6.375V116H18.15V93.05C18.15 88.025 18.15 81.275 18 75.95C18.975 81.275 20.7 88.025 22.125 92.975L28.8 116H41.25L47.775 92.975C49.275 88.025 51 81.2 52.05 75.875C51.9 81.2 51.9 88.025 51.9 93.05V116H63.675V64.25ZM103.138 101.375L107.863 116H120.613L102.163 64.25H87.6135L68.9385 116H81.4635L86.2635 101.375H103.138ZM94.7385 74.45L100.213 92.15H89.1885L94.7385 74.45ZM165.121 103.175C164.521 97.175 162.496 93.05 157.246 91.1C163.771 89.225 167.521 84.95 167.521 78.35C167.521 69.275 161.296 65.525 153.796 64.625C151.096 64.325 149.071 64.25 145.996 64.25H126.346V116H138.121V95.675H142.771C144.196 95.675 145.471 95.675 146.896 95.75C150.796 96.05 152.971 99.35 153.646 104.975C154.096 109.325 154.846 112.4 156.121 116H168.946C166.846 113 165.796 109.25 165.121 103.175ZM138.121 87.05V73.4H144.646C146.296 73.4 147.571 73.475 148.621 73.55C152.446 74 155.221 75.5 155.221 80.225C155.221 84.95 151.996 86.6 148.171 86.975C147.121 87.05 145.846 87.05 144.196 87.05H138.121ZM200.597 88.85L223.247 64.25H209.222L188.072 88.25V64.25H176.297V116H188.072V99.875L192.047 95.45L207.422 116H222.347L200.597 88.85ZM251.369 64.4C249.269 64.25 248.069 64.25 245.594 64.25H230.444V116H245.519C247.994 116 249.494 116 252.119 115.7C260.294 114.725 271.844 107.3 271.844 89.825C271.844 72.2 260.294 65.225 251.369 64.4ZM251.744 113.15C249.494 113.45 247.844 113.525 245.369 113.525H233.294V66.725H245.519C248.219 66.725 249.494 66.725 251.144 66.95C259.469 67.85 268.694 74.75 268.694 89.825C268.694 104.525 260.069 112.1 251.744 113.15ZM307.779 96.275L315.204 116H318.279L298.779 64.25H295.029L275.304 116H278.379L285.654 96.275H307.779ZM286.629 93.8L296.829 66.575L306.879 93.8H286.629ZM345.175 63.2C331.6 63.2 321.475 74.225 321.475 90.275C321.475 106.7 330.775 117.05 344.2 117.05C356.875 117.05 363.4 109.25 365.125 99.65L365.2 98.9H362.35L362.2 99.65C360.475 108.125 354.85 114.575 344.35 114.575C333.475 114.575 324.625 106.25 324.625 90.125C324.625 74.6 334.225 65.675 344.95 65.675C354.775 65.675 360.55 71.75 362.2 79.925L362.35 80.675H365.2L365.125 79.925C363.4 70.475 356.95 63.2 345.175 63.2Z" fill="white"/>
<ellipse cx="237.762" cy="48.5635" rx="6.182" ry="6.05499" fill="white"/>
<ellipse cx="276.621" cy="15.6936" rx="6.182" ry="6.05499" fill="white"/>
<path d="M236.879 47.6985L275.738 14.8286" stroke="white" stroke-width="2"/>
<ellipse rx="6.33224" ry="5.67985" transform="matrix(0.236027 0.971747 -0.967785 0.251779 275.824 15.3466)" fill="white"/>
<ellipse rx="6.33224" ry="5.67985" transform="matrix(0.236027 0.971747 -0.967785 0.251779 315.059 46.2616)" fill="white"/>
<path d="M276.396 14.2633L315.631 45.1782" stroke="white" stroke-width="2"/>
<ellipse rx="6.36556" ry="6.23458" transform="matrix(-0.999738 -0.0229029 0.0213833 -0.999771 356.412 13.7248)" fill="white"/>
<ellipse rx="6.36556" ry="6.23458" transform="matrix(-0.999738 -0.0229029 0.0213833 -0.999771 315.689 46.6418)" fill="white"/>
<path d="M357.302 14.6324L316.577 47.5531" stroke="white" stroke-width="2"/>
</svg>
