<svg width="360" height="109" viewBox="0 0 360 109" fill="none" xmlns="http://www.w3.org/2000/svg">
<path fill-rule="evenodd" clip-rule="evenodd" d="M344.099 0.984013C340.648 0.908947 337.792 3.44982 337.719 6.65921C337.685 8.18342 338.285 9.5843 339.294 10.6432L308.93 33.9476C308.147 33.0012 307.057 32.2832 305.796 31.9247C304.624 31.2826 303.25 31.0579 301.896 31.3925C301.29 31.5422 300.734 31.7921 300.241 32.122L271.347 10.5059C271.569 9.91926 271.69 9.28823 271.69 8.63095C271.69 6.1532 269.974 4.04829 267.586 3.28861C266.35 2.50637 264.849 2.20569 263.371 2.57081C260.39 3.30714 258.63 6.47246 259.441 9.64075C259.522 9.96026 259.627 10.2676 259.753 10.5612L230.248 34.2575C229.415 33.8567 228.468 33.6303 227.465 33.6303C224.112 33.6303 221.395 36.1577 221.395 39.2753C221.395 42.393 224.112 44.9203 227.465 44.9203C230.817 44.9203 233.535 42.393 233.535 39.2753C233.535 37.8039 232.93 36.464 231.938 35.4592L260.828 12.2558C261.761 13.2984 263.017 13.9814 264.363 14.1549C264.769 14.2342 265.189 14.276 265.62 14.276C267.51 14.276 269.198 13.4728 270.311 12.2136L298.809 33.5337C298.162 34.4643 297.789 35.6029 297.769 36.8065C297.747 36.9845 297.734 37.165 297.73 37.3478C297.658 40.5572 300.397 43.2197 303.848 43.2948C307.299 43.3699 310.155 40.829 310.228 37.6196C310.243 36.9492 310.135 36.3027 309.924 35.6986L340.955 11.8822C341.811 12.3232 342.792 12.5835 343.837 12.6062C347.288 12.6813 350.145 10.1404 350.217 6.93105C350.289 3.72166 347.55 1.05908 344.099 0.984013ZM308.897 36.4868C309.308 39.4122 307.595 42.1832 304.831 42.8659C301.85 43.6023 298.776 41.6308 297.966 38.4625C297.823 37.906 297.76 37.3496 297.769 36.8065C297.909 35.6639 298.403 34.6254 299.146 33.786L303.378 36.9517L304.471 35.2869L300.747 32.5004C301.726 31.9511 302.88 31.6458 304.11 31.6726C304.696 31.6853 305.261 31.7727 305.796 31.9247C306.819 32.4851 307.688 33.3634 308.256 34.4654L304.19 37.586L305.518 39.0807L308.897 36.4868ZM300.747 32.5004L300.241 32.122C299.678 32.4985 299.195 32.9792 298.809 33.5337L299.146 33.786C299.597 33.2774 300.138 32.8418 300.747 32.5004ZM308.897 36.4868C308.865 36.2572 308.819 36.0266 308.76 35.796C308.64 35.3243 308.469 34.8791 308.256 34.4654L308.93 33.9476C309.362 34.4692 309.701 35.0602 309.924 35.6986L308.897 36.4868ZM269.558 11.6501L270.311 12.2136C270.757 11.7099 271.11 11.1333 271.347 10.5059L270.313 9.73219C270.49 8.85549 270.476 7.91501 270.236 6.97428C269.827 5.37701 268.843 4.08391 267.586 3.28861C266.97 3.09241 266.308 2.98594 265.62 2.98594C262.268 2.98594 259.55 5.5133 259.55 8.63095C259.55 9.27182 259.665 9.88774 259.876 10.4619L259.753 10.5612C260.023 11.1952 260.39 11.7653 260.828 12.2558L260.909 12.1911C261.77 13.1749 262.98 13.884 264.363 14.1549C264.999 14.2367 265.655 14.2051 266.306 14.0442C267.706 13.6983 268.837 12.8165 269.558 11.6501ZM265.429 8.5609L269.558 11.6501C269.917 11.0707 270.174 10.4212 270.313 9.73219L265.946 6.46522L264.929 8.0141L264.072 7.09177L259.876 10.4619C260.11 11.097 260.463 11.6809 260.909 12.1911L265.429 8.5609ZM265.429 8.5609L265.433 8.55728L264.929 8.0141L264.853 8.12995L265.429 8.5609ZM231.938 35.4592C231.457 34.9722 230.886 34.5639 230.248 34.2575L225.917 37.7361L227.278 39.2017L231.938 35.4592ZM340.955 11.8822C340.327 11.5589 339.766 11.1384 339.294 10.6432L344.178 6.89429L345.506 8.38903L340.955 11.8822ZM39.9179 31.201H38.1779L30.3179 50.911L22.5179 31.201H20.6579V51.901H21.7979V40.231C21.7979 37.621 21.7979 34.711 21.7379 32.191C22.6679 34.681 23.8379 37.651 24.8579 40.201L29.5679 51.901H31.0079L35.7179 40.231C36.7679 37.651 37.9079 34.681 38.8379 32.161C38.7927 34.0593 38.7986 36.1959 38.8042 38.2503V38.2506V38.2522V38.2538V38.2553V38.2569V38.2584V38.26V38.2615V38.2631V38.2647C38.8061 38.9326 38.8079 39.5917 38.8079 40.231V51.901H39.9179V31.201ZM56.8236 43.561C56.8236 39.451 54.6336 35.671 50.1636 35.671C46.1436 35.671 42.9936 38.941 42.9936 43.951C42.9936 49.501 46.1136 52.321 49.8936 52.321C52.9536 52.321 55.7136 50.551 56.5836 46.981H55.4136C54.6336 49.981 52.3536 51.361 49.9536 51.361C47.1936 51.361 44.3736 49.441 44.1936 44.311H56.7936C56.8236 43.921 56.8236 43.711 56.8236 43.561ZM50.1036 36.631C52.7736 36.631 55.4736 38.431 55.6536 43.321H44.1936C44.3736 38.791 47.3436 36.631 50.1036 36.631ZM80.4132 40.291C80.0832 37.411 78.4932 35.671 75.6432 35.671C74.0532 35.671 72.7032 36.241 71.6832 37.441L70.6332 39.481C70.0932 37.081 68.5632 35.671 66.0132 35.671C64.4232 35.671 63.0432 36.241 62.0232 37.441L61.2432 39.181V36.091H60.1032V51.901H61.2432V43.141C61.2432 38.551 63.2832 36.631 65.7432 36.631C68.1432 36.631 69.3432 38.221 69.6432 40.681C69.7332 41.491 69.7632 42.211 69.7632 43.411V51.901H70.9032V43.141C70.9032 38.551 72.9132 36.631 75.4032 36.631C77.8032 36.631 79.0032 38.221 79.2732 40.681C79.3632 41.491 79.3932 42.211 79.3932 43.411V51.901H80.5332V42.901C80.5332 41.611 80.5032 41.101 80.4132 40.291ZM91.5819 35.671C89.5719 35.671 88.1019 36.211 86.8119 37.651L85.8819 39.421V29.851H84.7419V51.901H85.8819V48.661L86.7819 50.521C87.9519 51.781 89.3619 52.321 91.1919 52.321C95.0619 52.321 98.5119 49.501 98.5119 43.831C98.5119 39.091 95.8419 35.671 91.5819 35.671ZM91.1919 51.361C88.7619 51.361 85.8819 49.831 85.8819 44.941V43.381C85.8819 38.371 88.4619 36.631 91.4619 36.631C95.2419 36.631 97.2519 39.991 97.2519 44.011C97.2519 48.451 94.7319 51.361 91.1919 51.361ZM114.128 43.561C114.128 39.451 111.938 35.671 107.468 35.671C103.448 35.671 100.298 38.941 100.298 43.951C100.298 49.501 103.418 52.321 107.198 52.321C110.258 52.321 113.018 50.551 113.888 46.981H112.718C111.938 49.981 109.658 51.361 107.258 51.361C104.498 51.361 101.678 49.441 101.498 44.311H114.098C114.128 43.921 114.128 43.711 114.128 43.561ZM107.408 36.631C110.078 36.631 112.778 38.431 112.958 43.321H101.498C101.678 38.791 104.648 36.631 107.408 36.631ZM122.598 35.671C121.308 35.671 120.168 36.301 119.388 37.381L118.548 39.301V36.091H117.408V51.901H118.548V43.141C118.548 38.341 120.558 36.481 123.408 36.691V35.761C123.168 35.701 122.898 35.671 122.598 35.671ZM130.05 35.671C127.08 35.671 125.01 37.471 125.01 40.021C125.01 42.721 127.2 43.771 129.78 44.401C133.29 45.241 134.52 46.141 134.52 48.151C134.52 50.251 132.6 51.361 130.32 51.361C127.89 51.361 125.94 50.281 125.46 47.221H124.29C124.68 50.821 127.2 52.321 130.23 52.321C133.38 52.321 135.69 50.731 135.69 48.091C135.69 45.421 133.89 44.221 130.26 43.381C127.83 42.811 126.18 42.001 126.18 39.931C126.18 37.861 127.89 36.631 129.99 36.631C132.39 36.631 133.77 37.891 134.37 40.441H135.54C135.12 37.741 133.41 35.671 130.05 35.671ZM153.503 30.781C148.073 30.781 144.023 35.191 144.023 41.611C144.023 48.181 147.743 52.321 153.113 52.321C158.183 52.321 160.793 49.201 161.483 45.361L161.513 45.061H160.373L160.313 45.361C159.623 48.751 157.373 51.331 153.173 51.331C148.823 51.331 145.283 48.001 145.283 41.551C145.283 35.341 149.123 31.771 153.413 31.771C157.343 31.771 159.653 34.201 160.313 37.471L160.373 37.771H161.513L161.483 37.471C160.793 33.691 158.213 30.781 153.503 30.781ZM166.212 29.851H165.072V48.091C165.072 49.141 165.072 49.681 165.102 50.281C165.162 51.661 165.882 52.051 166.872 52.051C167.232 52.051 167.622 52.051 167.982 51.961V51.061C166.692 51.211 166.302 50.971 166.242 49.981C166.212 49.531 166.212 48.961 166.212 48.061V29.851ZM171.503 31.921C171.023 31.921 170.633 32.311 170.633 32.791C170.633 33.271 171.023 33.661 171.503 33.661C171.983 33.661 172.373 33.271 172.373 32.791C172.373 32.311 171.983 31.921 171.503 31.921ZM172.073 51.901V36.091H170.933V51.901H172.073ZM188.982 43.561C188.982 39.451 186.792 35.671 182.322 35.671C178.302 35.671 175.152 38.941 175.152 43.951C175.152 49.501 178.272 52.321 182.052 52.321C185.112 52.321 187.872 50.551 188.742 46.981H187.572C186.792 49.981 184.512 51.361 182.112 51.361C179.352 51.361 176.532 49.441 176.352 44.311H188.952C188.982 43.921 188.982 43.711 188.982 43.561ZM182.262 36.631C184.932 36.631 187.632 38.431 187.812 43.321H176.352C176.532 38.791 179.502 36.631 182.262 36.631ZM204.351 40.471C204.051 37.471 202.131 35.671 198.861 35.671C197.001 35.671 195.321 36.331 194.121 37.831L193.401 39.481V36.091H192.261V51.901H193.401V43.141C193.401 38.611 195.951 36.661 198.741 36.661C201.591 36.661 202.941 38.341 203.211 40.801C203.301 41.611 203.331 42.301 203.331 43.351V51.901H204.471V43.081C204.471 41.791 204.441 41.281 204.351 40.471ZM210.378 49.441C210.348 49.021 210.348 48.631 210.348 47.851V37.111H213.408V36.211H210.348V32.851H209.208V36.211H207.258V37.111H209.208V47.791C209.208 48.691 209.208 49.231 209.268 49.891C209.388 51.421 210.198 52.111 211.758 52.111C212.328 52.111 212.958 52.081 213.438 52.021V51.121C211.188 51.451 210.498 51.001 210.378 49.441ZM57.6785 55.3385H39.6785L29.2535 95.9135L18.8285 55.3385H0.37854V107.089H12.1535V84.1385C12.1535 79.1135 12.1535 72.3635 12.0035 67.0385C12.9785 72.3635 14.7035 79.1135 16.1285 84.0635L22.8035 107.089H35.2535L41.7785 84.0635C43.2785 79.1135 45.0035 72.2885 46.0535 66.9635C45.9035 72.2885 45.9035 79.1135 45.9035 84.1385V107.089H57.6785V55.3385ZM97.142 92.4635L101.867 107.089H114.617L96.167 55.3385H81.617L62.942 107.089H75.467L80.267 92.4635H97.142ZM88.742 65.5385L94.217 83.2385H83.192L88.742 65.5385ZM159.124 94.2635C158.524 88.2635 156.499 84.1385 151.249 82.1885C157.774 80.3135 161.524 76.0385 161.524 69.4385C161.524 60.3635 155.299 56.6135 147.799 55.7135C145.099 55.4135 143.074 55.3385 139.999 55.3385H120.349V107.089H132.124V86.7635H136.774C138.199 86.7635 139.474 86.7635 140.899 86.8385C144.799 87.1385 146.974 90.4385 147.649 96.0635C148.099 100.414 148.849 103.489 150.124 107.089H162.949C160.849 104.089 159.799 100.339 159.124 94.2635ZM132.124 78.1385V64.4885H138.649C140.299 64.4885 141.574 64.5635 142.624 64.6385C146.449 65.0885 149.224 66.5885 149.224 71.3135C149.224 76.0385 145.999 77.6885 142.174 78.0635C141.124 78.1385 139.849 78.1385 138.199 78.1385H132.124ZM194.6 79.9385L217.25 55.3385H203.225L182.075 79.3385V55.3385H170.3V107.089H182.075V90.9635L186.05 86.5385L201.425 107.089H216.35L194.6 79.9385ZM245.372 55.4885C243.272 55.3385 242.072 55.3385 239.597 55.3385H224.447V107.089H239.522C241.997 107.089 243.497 107.089 246.122 106.789C254.297 105.814 265.848 98.3885 265.848 80.9135C265.848 63.2885 254.297 56.3135 245.372 55.4885ZM245.747 104.239C243.497 104.539 241.847 104.614 239.372 104.614H227.297V57.8135H239.522C242.222 57.8135 243.497 57.8135 245.147 58.0385C253.472 58.9385 262.697 65.8385 262.697 80.9135C262.697 95.6135 254.072 103.189 245.747 104.239ZM301.782 87.3635L309.207 107.089H312.282L292.782 55.3385H289.032L269.307 107.089H272.382L279.657 87.3635H301.782ZM280.632 84.8885L290.832 57.6635L300.882 84.8885H280.632ZM339.178 54.2885C325.603 54.2885 315.478 65.3135 315.478 81.3635C315.478 97.7885 324.778 108.139 338.203 108.139C350.878 108.139 357.403 100.339 359.128 90.7385L359.203 89.9885H356.353L356.203 90.7385C354.478 99.2135 348.853 105.664 338.353 105.664C327.478 105.664 318.628 97.3385 318.628 81.2135C318.628 65.6885 328.228 56.7635 338.953 56.7635C348.778 56.7635 354.553 62.8385 356.203 71.0135L356.353 71.7635H359.203L359.128 71.0135C357.403 61.5635 350.953 54.2885 339.178 54.2885Z" fill="white"/>
</svg>
