<svg width="359" height="107" viewBox="0 0 359 107" fill="none" xmlns="http://www.w3.org/2000/svg">
<path fill-rule="evenodd" clip-rule="evenodd" d="M343.915 0.00159769C340.462 -0.0723731 337.605 2.43144 337.532 5.59401C337.498 7.09338 338.096 8.47163 339.102 9.51448L308.723 32.4779C307.939 31.5478 306.85 30.8424 305.59 30.4902C304.417 29.858 303.043 29.637 301.688 29.9666C301.085 30.1135 300.531 30.3585 300.038 30.6817L271.126 9.37843C271.346 8.8021 271.466 8.18241 271.466 7.53705C271.466 5.09539 269.749 3.02117 267.36 2.27259C266.123 1.50183 264.621 1.20557 263.142 1.56535C260.159 2.29093 258.399 5.41008 259.21 8.53216C259.291 8.84438 259.395 9.14481 259.519 9.43195L229.994 32.7861C229.161 32.3933 228.217 32.1716 227.216 32.1716C223.862 32.1716 221.143 34.6621 221.143 37.7343C221.143 40.8064 223.862 43.2969 227.216 43.2969C230.57 43.2969 233.29 40.8064 233.29 37.7343C233.29 36.2869 232.686 34.9687 231.697 33.9792L260.603 11.1145C261.536 12.139 262.791 12.8101 264.136 12.9805C264.542 13.0586 264.962 13.0997 265.393 13.0997C267.281 13.0997 268.968 12.3103 270.082 11.0721L298.597 32.0816C297.949 33.0009 297.577 34.1256 297.559 35.3141C297.539 35.4854 297.526 35.6592 297.522 35.835C297.45 38.9975 300.19 41.6213 303.643 41.6952C307.096 41.7692 309.954 39.2654 310.026 36.1028C310.042 35.4447 309.935 34.8098 309.725 34.2165L340.777 10.7445C341.632 11.1769 342.61 11.4319 343.654 11.4543C347.107 11.5283 349.964 9.02446 350.037 5.86188C350.109 2.69931 347.368 0.0755685 343.915 0.00159769ZM308.695 34.995L309.725 34.2165C309.501 33.5822 309.159 32.9953 308.723 32.4779L308.049 32.9878C307.48 31.9046 306.611 31.0412 305.59 30.4902C305.056 30.3409 304.491 30.2551 303.905 30.2425C302.677 30.2162 301.525 30.5159 300.546 31.0553L300.038 30.6817C299.471 31.0544 298.984 31.5312 298.597 32.0816L298.934 32.3305C298.191 33.1598 297.697 34.1857 297.559 35.3141C297.552 35.8453 297.615 36.3893 297.756 36.9334C298.567 40.0555 301.643 41.9982 304.625 41.2726C307.388 40.6005 309.102 37.8746 308.695 34.995ZM298.934 32.3305C299.387 31.8255 299.932 31.3933 300.546 31.0553L304.269 33.7988L303.168 35.4498L298.934 32.3305ZM308.695 34.995L305.317 37.5482L303.979 36.064L308.049 32.9878C308.264 33.3974 308.436 33.8384 308.557 34.3058C308.617 34.5359 308.663 34.7659 308.695 34.995ZM269.33 10.5175C268.608 11.6642 267.478 12.5311 266.079 12.8714C265.427 13.0298 264.772 13.061 264.136 12.9805C262.754 12.7142 261.545 12.0176 260.684 11.0508L265.203 7.47661L269.33 10.5175ZM270.09 8.6153L271.126 9.37843C270.887 10.001 270.531 10.573 270.082 11.0721L269.33 10.5175C269.691 9.9433 269.95 9.2989 270.09 8.6153ZM264.701 6.92907L265.723 5.39753L270.09 8.6153C270.266 7.75337 270.251 6.8291 270.011 5.90458C269.602 4.33056 268.618 3.05629 267.36 2.27259C266.743 2.07928 266.081 1.97438 265.393 1.97438C262.038 1.97438 259.319 4.46487 259.319 7.53705C259.319 8.16577 259.433 8.77014 259.643 9.33379L259.519 9.43195C259.791 10.062 260.161 10.6281 260.603 11.1145L260.684 11.0508C260.233 10.5448 259.878 9.96481 259.643 9.33379L263.839 6.0147L264.701 6.92907ZM264.701 6.92907L265.211 7.46982L265.203 7.47661L264.622 7.04854L264.701 6.92907ZM231.697 33.9792C231.213 33.495 230.637 33.0895 229.994 32.7861L225.662 36.2121L227.035 37.6672L231.697 33.9792ZM340.777 10.7445C340.143 10.4243 339.577 10.0067 339.102 9.51448L343.99 5.82005L345.328 7.30419L340.777 10.7445ZM39.5526 29.8989H37.8126L29.9526 49.6089L22.1526 29.8989H20.2926V50.5989H21.4326V38.9289C21.4326 36.3189 21.4326 33.4089 21.3726 30.8889C22.3026 33.3789 23.4726 36.3489 24.4926 38.8989L29.2026 50.5989H30.6426L35.3526 38.9289C36.4026 36.3489 37.5426 33.3789 38.4726 30.8589C38.4274 32.7572 38.4332 34.8938 38.4389 36.9481V36.9485V36.95V36.9516V36.9532V36.9548V36.9563V36.9579V36.9595V36.961V36.9626V36.9642V36.9658C38.4407 37.6326 38.4426 38.2906 38.4426 38.9289V50.5989H39.5526V29.8989ZM56.4583 42.2589C56.4583 38.1489 54.2683 34.3689 49.7983 34.3689C45.7783 34.3689 42.6283 37.6389 42.6283 42.6489C42.6283 48.1989 45.7483 51.0189 49.5283 51.0189C52.5883 51.0189 55.3483 49.2489 56.2183 45.6789H55.0483C54.2683 48.6789 51.9883 50.0589 49.5883 50.0589C46.8283 50.0589 44.0083 48.1389 43.8283 43.0089H56.4283C56.4583 42.6189 56.4583 42.4089 56.4583 42.2589ZM49.7383 35.3289C52.4083 35.3289 55.1083 37.1289 55.2883 42.0189H43.8283C44.0083 37.4889 46.9783 35.3289 49.7383 35.3289ZM80.0479 38.9889C79.7179 36.1089 78.1279 34.3689 75.2779 34.3689C73.6879 34.3689 72.3379 34.9389 71.3179 36.1389L70.2679 38.1789C69.7279 35.7789 68.1979 34.3689 65.6479 34.3689C64.0579 34.3689 62.6779 34.9389 61.6579 36.1389L60.8779 37.8789V34.7889H59.7379V50.5989H60.8779V41.8389C60.8779 37.2489 62.9179 35.3289 65.3779 35.3289C67.7779 35.3289 68.9779 36.9189 69.2779 39.3789C69.3679 40.1889 69.3979 40.9089 69.3979 42.1089V50.5989H70.5379V41.8389C70.5379 37.2489 72.5479 35.3289 75.0379 35.3289C77.4379 35.3289 78.6379 36.9189 78.9079 39.3789C78.9979 40.1889 79.0279 40.9089 79.0279 42.1089V50.5989H80.1679V41.5989C80.1679 40.3089 80.1379 39.7989 80.0479 38.9889ZM91.2166 34.3689C89.2066 34.3689 87.7366 34.9089 86.4466 36.3489L85.5166 38.1189V28.5489H84.3766V50.5989H85.5166V47.3589L86.4165 49.2189C87.5866 50.4789 88.9966 51.0189 90.8266 51.0189C94.6966 51.0189 98.1466 48.1989 98.1466 42.5289C98.1466 37.7889 95.4766 34.3689 91.2166 34.3689ZM90.8266 50.0589C88.3966 50.0589 85.5166 48.5289 85.5166 43.6389V42.0789C85.5166 37.0689 88.0965 35.3289 91.0965 35.3289C94.8766 35.3289 96.8866 38.6889 96.8866 42.7089C96.8866 47.1489 94.3666 50.0589 90.8266 50.0589ZM113.763 42.2589C113.763 38.1489 111.573 34.3689 107.103 34.3689C103.083 34.3689 99.933 37.6389 99.933 42.6489C99.933 48.1989 103.053 51.0189 106.833 51.0189C109.893 51.0189 112.653 49.2489 113.523 45.6789H112.353C111.573 48.6789 109.293 50.0589 106.893 50.0589C104.133 50.0589 101.313 48.1389 101.133 43.0089H113.733C113.763 42.6189 113.763 42.4089 113.763 42.2589ZM107.043 35.3289C109.713 35.3289 112.413 37.1289 112.593 42.0189H101.133C101.313 37.4889 104.283 35.3289 107.043 35.3289ZM122.233 34.3689C120.943 34.3689 119.803 34.9989 119.023 36.0789L118.183 37.9989V34.7889H117.043V50.5989H118.183V41.8389C118.183 37.0389 120.193 35.1789 123.043 35.3889V34.4589C122.803 34.3989 122.533 34.3689 122.233 34.3689ZM139.896 29.4789C134.466 29.4789 130.416 33.8889 130.416 40.3089C130.416 46.8789 134.136 51.0189 139.506 51.0189C144.576 51.0189 147.186 47.8989 147.876 44.0589L147.906 43.7589H146.766L146.706 44.0589C146.016 47.4489 143.766 50.0289 139.566 50.0289C135.216 50.0289 131.676 46.6989 131.676 40.2489C131.676 34.0389 135.516 30.4689 139.806 30.4689C143.736 30.4689 146.046 32.8989 146.706 36.1689L146.766 36.4689H147.906L147.876 36.1689C147.186 32.3889 144.606 29.4789 139.896 29.4789ZM152.604 28.5489H151.464V46.7889C151.464 47.8389 151.464 48.3789 151.494 48.9789C151.554 50.3589 152.274 50.7489 153.264 50.7489C153.624 50.7489 154.014 50.7489 154.374 50.6589V49.7589C153.084 49.9089 152.694 49.6689 152.634 48.6789C152.604 48.2289 152.604 47.6589 152.604 46.7589V28.5489ZM157.896 30.6189C157.416 30.6189 157.026 31.0089 157.026 31.4889C157.026 31.9689 157.416 32.3589 157.896 32.3589C158.376 32.3589 158.766 31.9689 158.766 31.4889C158.766 31.0089 158.376 30.6189 157.896 30.6189ZM158.466 50.5989V34.7889H157.326V50.5989H158.466ZM175.374 42.2589C175.374 38.1489 173.184 34.3689 168.714 34.3689C164.694 34.3689 161.544 37.6389 161.544 42.6489C161.544 48.1989 164.664 51.0189 168.444 51.0189C171.504 51.0189 174.264 49.2489 175.134 45.6789H173.964C173.184 48.6789 170.904 50.0589 168.504 50.0589C165.744 50.0589 162.924 48.1389 162.744 43.0089H175.344C175.374 42.6189 175.374 42.4089 175.374 42.2589ZM168.654 35.3289C171.324 35.3289 174.024 37.1289 174.204 42.0189H162.744C162.924 37.4889 165.894 35.3289 168.654 35.3289ZM190.744 39.1689C190.444 36.1689 188.524 34.3689 185.254 34.3689C183.394 34.3689 181.714 35.0289 180.514 36.5289L179.794 38.1789V34.7889H178.654V50.5989H179.794V41.8389C179.794 37.3089 182.344 35.3589 185.134 35.3589C187.984 35.3589 189.334 37.0389 189.604 39.4989C189.694 40.3089 189.724 40.9989 189.724 42.0489V50.5989H190.864V41.7789C190.864 40.4889 190.834 39.9789 190.744 39.1689ZM196.771 48.1389C196.741 47.7189 196.741 47.3289 196.741 46.5489V35.8089H199.801V34.9089H196.741V31.5489H195.601V34.9089H193.651V35.8089H195.601V46.4889C195.601 47.3889 195.601 47.9289 195.661 48.5889C195.781 50.1189 196.591 50.8089 198.151 50.8089C198.721 50.8089 199.351 50.7789 199.831 50.7189V49.8189C197.581 50.1489 196.891 49.6989 196.771 48.1389ZM57.3 53.8732H39.3L28.875 94.4482L18.45 53.8732H0V105.623H11.775V82.6732C11.775 77.6482 11.775 70.8982 11.625 65.5732C12.6 70.8982 14.325 77.6482 15.75 82.5982L22.425 105.623H34.875L41.4 82.5982C42.9 77.6482 44.625 70.8232 45.675 65.4982C45.525 70.8232 45.525 77.6482 45.525 82.6732V105.623H57.3V53.8732ZM96.7635 90.9982L101.488 105.623H114.238L95.7885 53.8732H81.2385L62.5635 105.623H75.0885L79.8885 90.9982H96.7635ZM88.3635 64.0732L93.8385 81.7732H82.8135L88.3635 64.0732ZM158.746 92.7982C158.146 86.7982 156.121 82.6732 150.871 80.7232C157.396 78.8482 161.146 74.5732 161.146 67.9732C161.146 58.8982 154.921 55.1482 147.421 54.2482C144.721 53.9482 142.696 53.8732 139.621 53.8732H119.971V105.623H131.746V85.2982H136.396C137.821 85.2982 139.096 85.2982 140.521 85.3732C144.421 85.6732 146.596 88.9732 147.271 94.5982C147.721 98.9482 148.471 102.023 149.746 105.623H162.571C160.471 102.623 159.421 98.8732 158.746 92.7982ZM131.746 76.6732V63.0232H138.271C139.921 63.0232 141.196 63.0982 142.246 63.1732C146.071 63.6232 148.846 65.1232 148.846 69.8482C148.846 74.5732 145.621 76.2232 141.796 76.5982C140.746 76.6732 139.471 76.6732 137.821 76.6732H131.746ZM194.222 78.4732L216.872 53.8732H202.847L181.697 77.8732V53.8732H169.922V105.623H181.697V89.4982L185.672 85.0732L201.047 105.623H215.972L194.222 78.4732ZM244.994 54.0232C242.894 53.8732 241.694 53.8732 239.219 53.8732H224.069V105.623H239.144C241.619 105.623 243.119 105.623 245.744 105.323C253.919 104.348 265.469 96.9232 265.469 79.4482C265.469 61.8232 253.919 54.8482 244.994 54.0232ZM245.369 102.773C243.119 103.073 241.469 103.148 238.994 103.148H226.919V56.3482H239.144C241.844 56.3482 243.119 56.3482 244.769 56.5732C253.094 57.4732 262.319 64.3732 262.319 79.4482C262.319 94.1482 253.694 101.723 245.369 102.773ZM301.404 85.8982L308.829 105.623H311.904L292.404 53.8732H288.654L268.929 105.623H272.004L279.279 85.8982H301.404ZM280.254 83.4232L290.454 56.1982L300.504 83.4232H280.254ZM338.8 52.8232C325.225 52.8232 315.1 63.8482 315.1 79.8982C315.1 96.3232 324.4 106.673 337.825 106.673C350.5 106.673 357.025 98.8732 358.75 89.2732L358.825 88.5232H355.975L355.825 89.2732C354.1 97.7482 348.475 104.198 337.975 104.198C327.1 104.198 318.25 95.8732 318.25 79.7482C318.25 64.2232 327.85 55.2982 338.575 55.2982C348.4 55.2982 354.175 61.3732 355.825 69.5482L355.975 70.2982H358.825L358.75 69.5482C357.025 60.0982 350.575 52.8232 338.8 52.8232Z" fill="white"/>
<circle cx="344" cy="7" r="7" fill="white"/>
<ellipse cx="304" cy="35.5" rx="7" ry="7.5" fill="white"/>
<circle cx="265" cy="7" r="7" fill="white"/>
<circle cx="227" cy="38" r="7" fill="white"/>
</svg>
