<svg width="249" height="96" viewBox="0 0 249 96" fill="none" xmlns="http://www.w3.org/2000/svg">
<path d="M41.601 46.19H29.841L23.03 72.699L16.219 46.19H4.165V80H11.858V65.006C11.858 61.723 11.858 57.313 11.76 53.834C12.397 57.313 13.524 61.723 14.455 64.957L18.816 80H26.95L31.213 64.957C32.193 61.723 33.32 57.264 34.006 53.785C33.908 57.264 33.908 61.723 33.908 65.006V80H41.601V46.19ZM67.3838 70.445L70.4708 80H78.8008L66.7468 46.19H57.2408L45.0398 80H53.2228L56.3588 70.445H67.3838ZM61.8958 52.854L65.4728 64.418H58.2698L61.8958 52.854ZM107.879 71.621C107.487 67.701 106.164 65.006 102.734 63.732C106.997 62.507 109.447 59.714 109.447 55.402C109.447 49.473 105.38 47.023 100.48 46.435C98.7159 46.239 97.3929 46.19 95.3839 46.19H82.5459V80H90.2389V66.721H93.2769C94.2079 66.721 95.0409 66.721 95.9719 66.77C98.5199 66.966 99.9409 69.122 100.382 72.797C100.676 75.639 101.166 77.648 101.999 80H110.378C109.006 78.04 108.32 75.59 107.879 71.621ZM90.2389 61.086V52.168H94.5019C95.5799 52.168 96.4129 52.217 97.0989 52.266C99.5979 52.56 101.411 53.54 101.411 56.627C101.411 59.714 99.3039 60.792 96.8049 61.037C96.1189 61.086 95.2859 61.086 94.2079 61.086H90.2389ZM131.057 62.262L145.855 46.19H136.692L122.874 61.87V46.19H115.181V80H122.874V69.465L125.471 66.574L135.516 80H145.267L131.057 62.262ZM164.228 46.288C162.856 46.19 162.072 46.19 160.455 46.19H150.557V80H160.406C162.023 80 163.003 80 164.718 79.804C170.059 79.167 177.605 74.316 177.605 62.899C177.605 51.384 170.059 46.827 164.228 46.288ZM164.473 78.138C163.003 78.334 161.925 78.383 160.308 78.383H152.419V47.807H160.406C162.17 47.807 163.003 47.807 164.081 47.954C169.52 48.542 175.547 53.05 175.547 62.899C175.547 72.503 169.912 77.452 164.473 78.138ZM201.082 67.113L205.933 80H207.942L195.202 46.19H192.752L179.865 80H181.874L186.627 67.113H201.082ZM187.264 65.496L193.928 47.709L200.494 65.496H187.264ZM225.514 45.504C216.645 45.504 210.03 52.707 210.03 63.193C210.03 73.924 216.106 80.686 224.877 80.686C233.158 80.686 237.421 75.59 238.548 69.318L238.597 68.828H236.735L236.637 69.318C235.51 74.855 231.835 79.069 224.975 79.069C217.87 79.069 212.088 73.63 212.088 63.095C212.088 52.952 218.36 47.121 225.367 47.121C231.786 47.121 235.559 51.09 236.637 56.431L236.735 56.921H238.597L238.548 56.431C237.421 50.257 233.207 45.504 225.514 45.504Z" fill="white"/>
<ellipse cx="156.983" cy="32.75" rx="3.98276" ry="4.08333" fill="white"/>
<ellipse cx="182.017" cy="10.5833" rx="3.98276" ry="4.08333" fill="white"/>
<path d="M156.414 32.1667L181.448 10" stroke="white" stroke-width="2"/>
<ellipse rx="4.25991" ry="3.67033" transform="matrix(0.226034 0.974119 -0.964862 0.262756 181.504 10.3494)" fill="white"/>
<ellipse rx="4.25991" ry="3.67033" transform="matrix(0.226034 0.974119 -0.964862 0.262756 206.781 31.1976)" fill="white"/>
<path d="M181.873 9.61882L207.15 30.4671" stroke="white" stroke-width="2"/>
<ellipse rx="4.10112" ry="4.20436" transform="matrix(-0.999713 -0.0239732 0.0204285 -0.999791 233.423 9.25469)" fill="white"/>
<ellipse rx="4.10112" ry="4.20436" transform="matrix(-0.999713 -0.0239732 0.0204285 -0.999791 207.187 31.4541)" fill="white"/>
<path d="M233.997 9.86769L207.759 32.0686" stroke="white" stroke-width="2"/>
</svg>
